# xmcd
# Track frame offsets:
# 150
# 13175
# 30385
# 48475
# 63902
# 82120
# 92967
# 111322
# 122285
# 138290
# 157130
# 171347
# 187040
#
# Disc length: 2854 seconds
# Revision: 0
# Processed by: cddbd v1.4PL0 Copyright (c) Steve Scherf et al.
# Submitted via: VisiTrax 2.9.5.180 - For more info visit www.synapsa.com
#
DISCID=b10b240d
DTITLE=Louise Morrissey - Better every day
DYEAR=1900
DGENRE=Irsk
TTITLE0=The tear
TTITLE1=What if I say goodbye
TTITLE2=In this life
TTITLE3=It's getting better
TTITLE4=Love can build a bridge
TTITLE5=Feelin' single, seein' double
TTITLE6=The Inn at Innisfree
TTITLE7=I'm gonna get you
TTITLE8=Forever and a day
TTITLE9=When I'm over you
TTITLE10=Losing you is new to me
TTITLE11=I miss the roses
TTITLE12=The dark Island
EXTD=
EXTT0=
EXTT1=
EXTT2=
EXTT3=
EXTT4=
EXTT5=
EXTT6=
EXTT7=
EXTT8=
EXTT9=
EXTT10=
EXTT11=
EXTT12=
PLAYORDER=
